<svg xmlns="http://www.w3.org/2000/svg" width="760" height="300" viewBox="0 0 760 300" font-family="-apple-system, BlinkMacSystemFont, 'Segoe UI', Helvetica, Arial, sans-serif"><rect width="760" height="300" fill="#0d1117"/><text x="20" y="26" font-size="16" font-weight="600" fill="#e6edf3">What peeking at the future is worth</text><text x="20" y="45" font-size="12.5" fill="#c3c2b7">The same GNN trained and scored causally vs with look-ahead (as published pipelines do) · days 9–10</text><line x1="52" x2="740" y1="260" y2="260" stroke="#2c2c2a"/><text x="44" y="264" font-size="11.5" fill="#8d948f" text-anchor="end">0%</text><line x1="52" x2="740" y1="212.5" y2="212.5" stroke="#2c2c2a"/><text x="44" y="216.5" font-size="11.5" fill="#8d948f" text-anchor="end">20%</text><line x1="52" x2="740" y1="165" y2="165" stroke="#2c2c2a"/><text x="44" y="169" font-size="11.5" fill="#8d948f" text-anchor="end">40%</text><line x1="52" x2="740" y1="117.50000000000003" y2="117.50000000000003" stroke="#2c2c2a"/><text x="44" y="121.50000000000003" font-size="11.5" fill="#8d948f" text-anchor="end">60%</text><line x1="52" x2="740" y1="70" y2="70" stroke="#2c2c2a"/><text x="44" y="74" font-size="11.5" fill="#8d948f" text-anchor="end">80%</text><path d="M109.66666666666669,260V127.14295143348596A4,4 0 0 1 113.66666666666669,123.14295143348596H159.66666666666669A4,4 0 0 1 163.66666666666669,127.14295143348596V260Z" fill="#c98500"/><text x="136.66666666666669" y="117.14295143348596" font-size="12" fill="#c3c2b7" text-anchor="middle">57.6%</text><path d="M169.66666666666669,260V106.30655432520012A4,4 0 0 1 173.66666666666669,102.30655432520012H219.66666666666669A4,4 0 0 1 223.66666666666669,106.30655432520012V260Z" fill="#199e70"/><text x="196.66666666666669" y="96.30655432520012" font-size="12" fill="#c3c2b7" text-anchor="middle">66.4%</text><text x="166.66666666666669" y="78.30655432520012" font-size="13" font-weight="600" fill="#e6edf3" text-anchor="middle">+8.8 pp</text><text x="166.66666666666669" y="284" font-size="12.5" fill="#e6edf3" text-anchor="middle">F1 @ best threshold</text><path d="M339.00000000000006,260V156.22441091985027A4,4 0 0 1 343.00000000000006,152.22441091985027H389.00000000000006A4,4 0 0 1 393.00000000000006,156.22441091985027V260Z" fill="#c98500"/><text x="366.00000000000006" y="146.22441091985027" font-size="12" fill="#c3c2b7" text-anchor="middle">45.4%</text><path d="M399.00000000000006,260V119.55134781654877A4,4 0 0 1 403.00000000000006,115.55134781654877H449.00000000000006A4,4 0 0 1 453.00000000000006,119.55134781654877V260Z" fill="#199e70"/><text x="426.00000000000006" y="109.55134781654877" font-size="12" fill="#c3c2b7" text-anchor="middle">60.8%</text><text x="396.00000000000006" y="91.55134781654877" font-size="13" font-weight="600" fill="#e6edf3" text-anchor="middle">+15.4 pp</text><text x="396.00000000000006" y="284" font-size="12.5" fill="#e6edf3" text-anchor="middle">F1 @ 0.5</text><path d="M568.3333333333334,260V131.5886669119242A4,4 0 0 1 572.3333333333334,127.58866691192421H618.3333333333334A4,4 0 0 1 622.3333333333334,131.5886669119242V260Z" fill="#c98500"/><text x="595.3333333333334" y="121.58866691192421" font-size="12" fill="#c3c2b7" text-anchor="middle">55.8%</text><path d="M628.3333333333334,260V113.98980884657297A4,4 0 0 1 632.3333333333334,109.98980884657297H678.3333333333334A4,4 0 0 1 682.3333333333334,113.98980884657297V260Z" fill="#199e70"/><text x="655.3333333333334" y="103.98980884657297" font-size="12" fill="#c3c2b7" text-anchor="middle">63.2%</text><text x="625.3333333333334" y="85.98980884657297" font-size="13" font-weight="600" fill="#e6edf3" text-anchor="middle">+7.4 pp</text><text x="625.3333333333334" y="284" font-size="12.5" fill="#e6edf3" text-anchor="middle">PR-AUC</text><rect x="460" y="52" width="12" height="12" rx="3" fill="#c98500"/><text x="478" y="62" font-size="12" fill="#c3c2b7">causal (deployable)</text><rect x="600" y="52" width="12" height="12" rx="3" fill="#199e70"/><text x="618" y="62" font-size="12" fill="#c3c2b7">look-ahead</text></svg>
