<svg xmlns="http://www.w3.org/2000/svg" width="760" height="272" viewBox="0 0 760 272" font-family="-apple-system, BlinkMacSystemFont, 'Segoe UI', Helvetica, Arial, sans-serif"><rect width="760" height="272" fill="#ffffff"/><text x="20" y="26" font-size="16" font-weight="600" fill="#0e1513">Share of laundering caught at the same alert budget</text><text x="20" y="45" font-size="12.5" fill="#4a5450">Test days 9–10 · 0.5% of transfers alerted · whiskers: paired bootstrap 95% CI</text><line x1="250" x2="250" y1="52" y2="242" stroke="#e3e6e3"/><text x="250" y="258" font-size="11.5" fill="#747d79" text-anchor="middle">0%</text><line x1="360" x2="360" y1="52" y2="242" stroke="#e3e6e3"/><text x="360" y="258" font-size="11.5" fill="#747d79" text-anchor="middle">25%</text><line x1="470" x2="470" y1="52" y2="242" stroke="#e3e6e3"/><text x="470" y="258" font-size="11.5" fill="#747d79" text-anchor="middle">50%</text><line x1="580" x2="580" y1="52" y2="242" stroke="#e3e6e3"/><text x="580" y="258" font-size="11.5" fill="#747d79" text-anchor="middle">75%</text><line x1="690" x2="690" y1="52" y2="242" stroke="#e3e6e3"/><text x="690" y="258" font-size="11.5" fill="#747d79" text-anchor="middle">100%</text><text x="238" y="81" font-size="13" fill="#0e1513" text-anchor="end">Rules (label-tuned SQL)</text><path d="M250,66H276.3765690376569A4,4 0 0 1 280.3765690376569,70V84A4,4 0 0 1 276.3765690376569,88H250Z" fill="#4a3aa7"/><line x1="272.60335885998006" x2="289.8589554326827" y1="77" y2="77" stroke="#0e1513" stroke-width="1.5"/><line x1="272.60335885998006" x2="272.60335885998006" y1="71" y2="83" stroke="#0e1513" stroke-width="1.5"/><line x1="289.8589554326827" x2="289.8589554326827" y1="71" y2="83" stroke="#0e1513" stroke-width="1.5"/><text x="297.8589554326827" y="82" font-size="13" font-weight="600" fill="#0e1513">6.9%</text><text x="238" y="125" font-size="13" fill="#0e1513" text-anchor="end">LightGBM, transaction features</text><path d="M250,110H394.29288702928864A4,4 0 0 1 398.29288702928864,114V128A4,4 0 0 1 394.29288702928864,132H250Z" fill="#eb6834"/><line x1="376.48557521654277" x2="419.1513738787122" y1="121" y2="121" stroke="#0e1513" stroke-width="1.5"/><line x1="376.48557521654277" x2="376.48557521654277" y1="115" y2="127" stroke="#0e1513" stroke-width="1.5"/><line x1="419.1513738787122" x2="419.1513738787122" y1="115" y2="127" stroke="#0e1513" stroke-width="1.5"/><text x="427.1513738787122" y="126" font-size="13" font-weight="600" fill="#0e1513">33.7%</text><text x="238" y="169" font-size="13" fill="#0e1513" text-anchor="end">LightGBM, causal graph features</text><path d="M250,154H547.0041841004183A4,4 0 0 1 551.0041841004183,158V172A4,4 0 0 1 547.0041841004183,176H250Z" fill="#2a78d6"/><line x1="514" x2="583.1938233597868" y1="165" y2="165" stroke="#0e1513" stroke-width="1.5"/><line x1="514" x2="514" y1="159" y2="171" stroke="#0e1513" stroke-width="1.5"/><line x1="583.1938233597868" x2="583.1938233597868" y1="159" y2="171" stroke="#0e1513" stroke-width="1.5"/><text x="591.1938233597868" y="170" font-size="13" font-weight="600" fill="#0e1513">68.4%</text><text x="238" y="213" font-size="13" fill="#0e1513" text-anchor="end">Causal GNN (Multi-GINe)</text><path d="M250,198H573.4225941422594A4,4 0 0 1 577.4225941422594,202V216A4,4 0 0 1 573.4225941422594,220H250Z" fill="#eda100"/><line x1="538.2457913998171" x2="612.3369202717406" y1="209" y2="209" stroke="#0e1513" stroke-width="1.5"/><line x1="538.2457913998171" x2="538.2457913998171" y1="203" y2="215" stroke="#0e1513" stroke-width="1.5"/><line x1="612.3369202717406" x2="612.3369202717406" y1="203" y2="215" stroke="#0e1513" stroke-width="1.5"/><text x="620.3369202717406" y="214" font-size="13" font-weight="600" fill="#0e1513">74.4%</text></svg>
